<svg xml:space="preserve" viewBox="0 0 110.086 27.545" height="27.545px" width="110.086px" y="0px" x="0px" xmlns:xlink="http://www.w3.org/1999/xlink" xmlns="http://www.w3.org/2000/svg" id="Layer_1" version="1.1">
<g>
	<g>
		<g>
			<g>
				<polygon points="23.334,7.154 17.739,3.923 17.713,23.636 23.334,20.392"></polygon>
			</g>
			<g>
				<polygon points="11.87,0.535 0.405,7.154 0.405,16.742 16.507,3.212"></polygon>
			</g>
			<g>
				<polygon points="0.405,16.742 0.405,20.392 11.87,27.011 15.93,24.666 11.731,14.66"></polygon>
			</g>
		</g>
	</g>
	<g>
		<g>
			<g>
				<path d="M39.61,25.733h-3.491l-1.625-9.448l-0.265-0.001v9.449h-3.469V1.812h5.681c0.698,0,1.291,0.244,1.779,0.733
					c0.489,0.489,0.734,1.082,0.734,1.779v9.448c0,0.878-0.359,1.565-1.076,2.064L39.61,25.733z M35.483,12.191V5.936
					c0-0.436-0.209-0.656-0.627-0.656h-0.628v7.535h0.628C35.274,12.816,35.483,12.607,35.483,12.191z"></path>
			</g>
			<g>
				<path d="M51.42,23.221c0,0.697-0.244,1.29-0.732,1.779c-0.489,0.489-1.082,0.733-1.779,0.733h-3.14
					c-0.698,0-1.296-0.244-1.794-0.733c-0.498-0.489-0.748-1.082-0.748-1.779V4.324c0-0.697,0.249-1.29,0.748-1.779
					c0.498-0.489,1.096-0.733,1.794-0.733h3.14c0.698,0,1.29,0.244,1.779,0.733c0.488,0.489,0.732,1.082,0.732,1.779V23.221z
					 M47.952,21.638V5.937c0-0.437-0.21-0.657-0.628-0.657c-0.419,0-0.628,0.22-0.628,0.657v15.701c0,0.419,0.209,0.627,0.628,0.627
					C47.743,22.265,47.952,22.056,47.952,21.638z"></path>
			</g>
			<g>
				<path d="M62.334,25.733h-4.096c-0.698,0-1.296-0.244-1.794-0.733c-0.498-0.489-0.748-1.082-0.748-1.779V4.324
					c0-0.697,0.249-1.29,0.748-1.779c0.498-0.489,1.097-0.733,1.794-0.733h4.096V5.28h-2.542c-0.418,0-0.628,0.22-0.628,0.657
					v15.701c0,0.419,0.209,0.627,0.628,0.627h2.542V25.733z"></path>
			</g>
			<g>
				<path d="M75.792,1.812l-4.168,11.471l4.164,12.45h-3.497l-2.485-7.484l-0.386,1.055v6.429h-3.468V1.812h3.468v7.923l2.901-7.923
					H75.792z"></path>
			</g>
			<g>
				<path d="M93.145,25.733h-6.638V1.812h6.638V5.28h-3.17v5.981h3.17l-3.17,3.468v7.535h3.17V25.733z"></path>
			</g>
			<g>
				<path d="M109.68,25.733h-3.468V14.132l-2.542,11.602h-0.867l-2.571-11.604v11.604h-3.469V1.812h3.159l3.319,14.007l3.344-14.007
					h3.096V25.733z"></path>
			</g>
		</g>
		<g>
			<polygon points="75.308,8.973 83.703,1.919 83.686,14.861 80.793,7.965"></polygon>
		</g>
	</g>
</g>
<g>
</g>
<g>
</g>
<g>
</g>
<g>
</g>
<g>
</g>
<g>
</g>
<g>
</g>
<g>
</g>
<g>
</g>
<g>
</g>
<g>
</g>
<g>
</g>
<g>
</g>
<g>
</g>
<g>
</g>
</svg>
